<svg width="284" height="248" viewBox="0 0 284 248" fill="none" xmlns="http://www.w3.org/2000/svg">
<g filter="url(#filter0_d_14106_3)">
<g filter="url(#filter1_d_14106_3)">
<path d="M124.545 124C138.101 124 149.091 113.255 149.091 100C149.091 86.7452 138.101 76 124.545 76C110.989 76 99.9999 86.7452 99.9999 100C99.9999 113.255 110.989 124 124.545 124Z" fill="url(#paint0_linear_14106_3)"/>
</g>
<path d="M116.957 108.329V91.67C116.957 91.5068 117.001 91.3464 117.086 91.2059C117.172 91.0654 117.294 90.9499 117.44 90.8716C117.587 90.7932 117.752 90.7549 117.919 90.7606C118.086 90.7663 118.248 90.8158 118.389 90.904L131.707 99.234C131.838 99.3161 131.947 99.4294 132.022 99.5634C132.097 99.6974 132.136 99.8477 132.136 100C132.136 100.153 132.097 100.304 132.022 100.438C131.947 100.572 131.838 100.685 131.707 100.767L118.389 109.096C118.248 109.184 118.086 109.234 117.919 109.239C117.752 109.245 117.586 109.207 117.44 109.128C117.293 109.05 117.171 108.934 117.086 108.793C117.001 108.653 116.956 108.492 116.957 108.329Z" fill="#FD695A"/>
<path d="M117.316 108.33V91.6401C117.315 91.6198 117.315 91.5994 117.316 91.5791C117.316 91.6541 117.316 91.5911 117.316 91.5701C117.328 91.5281 117.339 91.4861 117.352 91.4461C117.328 91.5161 117.344 91.4581 117.352 91.4391C117.359 91.4201 117.396 91.3821 117.413 91.3541C117.43 91.3261 117.436 91.3241 117.446 91.3121C117.403 91.3681 117.431 91.3281 117.444 91.3121C117.476 91.2841 117.508 91.2531 117.544 91.2231C117.487 91.2721 117.53 91.2321 117.549 91.2211L117.608 91.1851L117.659 91.1601C117.729 91.1221 117.606 91.1741 117.676 91.1531C117.72 91.1411 117.765 91.1271 117.81 91.1171C117.762 91.1101 117.892 91.0961 117.81 91.1171C117.833 91.1182 117.856 91.1182 117.879 91.1171C117.898 91.1159 117.917 91.1159 117.937 91.1171C117.937 91.1171 118.03 91.1331 117.975 91.1171L118.016 91.1291C118.045 91.1363 118.073 91.145 118.1 91.1551C118.112 91.1551 118.163 91.1741 118.1 91.1551L118.182 91.1971C118.19 91.2016 118.198 91.2066 118.206 91.2121H118.213L118.315 91.2751L118.852 91.6101L120.946 92.9201C121.932 93.5394 122.916 94.1564 123.898 94.7711C124.941 95.4224 125.984 96.0747 127.029 96.7281L129.723 98.4121C130.258 98.7454 130.793 99.0787 131.329 99.4121C131.382 99.4451 131.431 99.4781 131.485 99.5121L131.52 99.5331L131.574 99.5681C131.518 99.5261 131.574 99.5681 131.583 99.5801C131.592 99.5921 131.631 99.6291 131.654 99.6531C131.678 99.6771 131.683 99.7051 131.654 99.6531C131.664 99.6691 131.676 99.6831 131.685 99.7001C131.694 99.7171 131.712 99.7491 131.726 99.7751C131.74 99.8011 131.742 99.8341 131.726 99.7681C131.74 99.8131 131.755 99.8551 131.767 99.9021C131.771 99.9199 131.774 99.9379 131.776 99.9561C131.762 99.8671 131.776 99.9561 131.776 99.9721C131.776 99.9881 131.764 100.136 131.776 100.042C131.77 100.087 131.759 100.132 131.745 100.176C131.74 100.194 131.734 100.211 131.726 100.228C131.733 100.214 131.75 100.155 131.726 100.228C131.715 100.249 131.704 100.27 131.69 100.289C131.683 100.298 131.628 100.373 131.678 100.31C131.646 100.347 131.612 100.382 131.576 100.415C131.522 100.457 131.566 100.424 131.576 100.415C131.556 100.429 131.545 100.436 131.522 100.45C131.513 100.457 131.503 100.464 131.492 100.469L130.265 101.233L127.794 102.785C126.761 103.43 125.728 104.075 124.697 104.721L121.652 106.626C120.858 107.123 120.065 107.619 119.272 108.114C118.917 108.337 118.566 108.562 118.208 108.78C118.169 108.803 118.131 108.825 118.09 108.846C118.106 108.839 118.15 108.816 118.09 108.846L118.018 108.867C117.995 108.874 117.97 108.876 117.947 108.883C118.011 108.864 117.983 108.883 117.956 108.883C117.909 108.885 117.862 108.885 117.815 108.883C117.747 108.883 117.815 108.883 117.827 108.883C117.801 108.883 117.772 108.874 117.745 108.867C117.719 108.86 117.617 108.822 117.659 108.839C117.701 108.856 117.597 108.806 117.578 108.794C117.558 108.782 117.539 108.766 117.515 108.757C117.469 108.736 117.57 108.811 117.515 108.757C117.481 108.724 117.448 108.694 117.413 108.657C117.463 108.711 117.404 108.641 117.386 108.617C117.369 108.593 117.36 108.568 117.345 108.544C117.331 108.52 117.331 108.488 117.345 108.551C117.34 108.501 117.323 108.457 117.311 108.412C117.311 108.349 117.311 108.393 117.311 108.412C117.314 108.384 117.314 108.356 117.311 108.328C117.31 108.235 117.271 108.146 117.204 108.08C117.137 108.015 117.046 107.977 116.951 107.976C116.856 107.979 116.766 108.017 116.7 108.083C116.634 108.149 116.596 108.238 116.595 108.33C116.595 108.555 116.657 108.776 116.774 108.97C116.891 109.164 117.059 109.324 117.26 109.433C117.462 109.542 117.689 109.597 117.92 109.591C118.15 109.585 118.374 109.518 118.57 109.399C118.659 109.345 118.747 109.289 118.833 109.233L120.583 108.14L123.395 106.382C124.456 105.715 125.519 105.05 126.583 104.387L129.488 102.571C130.14 102.163 130.793 101.754 131.447 101.345L131.856 101.09C131.988 101.01 132.106 100.908 132.204 100.79C132.357 100.603 132.453 100.377 132.481 100.138C132.509 99.9 132.468 99.6587 132.362 99.4421C132.22 99.1889 132.007 98.9807 131.748 98.8421L131.169 98.4821L128.978 97.1121L125.955 95.2191C124.897 94.5584 123.838 93.8967 122.779 93.2341L120.125 91.5751L118.675 90.6671C118.519 90.5591 118.343 90.4835 118.156 90.4448C117.97 90.4061 117.777 90.4051 117.59 90.4421C117.301 90.5122 117.046 90.6761 116.865 90.9068C116.684 91.1376 116.589 91.4215 116.595 91.7121V108.335C116.596 108.428 116.634 108.517 116.701 108.583C116.769 108.649 116.86 108.686 116.955 108.687C117.05 108.684 117.14 108.645 117.207 108.578C117.274 108.512 117.313 108.423 117.316 108.33Z" fill="#FD695A"/>
</g>
<path d="M170.495 105.5L166.067 92.81H167.633L171.503 104.24H170.873L174.941 92.81H176.129L179.981 104.24H179.405L183.383 92.81H184.859L180.395 105.5H179.063L175.319 94.502H175.697L171.791 105.5H170.495ZM189.316 105.662C188.512 105.662 187.81 105.476 187.21 105.104C186.61 104.72 186.142 104.18 185.806 103.484C185.482 102.788 185.32 101.954 185.32 100.982C185.32 99.998 185.482 99.158 185.806 98.462C186.142 97.766 186.61 97.232 187.21 96.86C187.81 96.488 188.512 96.302 189.316 96.302C190.132 96.302 190.834 96.512 191.422 96.932C192.022 97.34 192.418 97.898 192.61 98.606H192.394L192.592 96.464H193.996C193.96 96.812 193.924 97.166 193.888 97.526C193.864 97.874 193.852 98.216 193.852 98.552V105.5H192.394V103.376H192.592C192.4 104.084 192.004 104.642 191.404 105.05C190.804 105.458 190.108 105.662 189.316 105.662ZM189.604 104.474C190.468 104.474 191.152 104.18 191.656 103.592C192.16 102.992 192.412 102.122 192.412 100.982C192.412 99.83 192.16 98.96 191.656 98.372C191.152 97.772 190.468 97.472 189.604 97.472C188.752 97.472 188.068 97.772 187.552 98.372C187.048 98.96 186.796 99.83 186.796 100.982C186.796 102.122 187.048 102.992 187.552 103.592C188.068 104.18 188.752 104.474 189.604 104.474ZM199.875 105.662C198.987 105.662 198.309 105.41 197.841 104.906C197.373 104.39 197.139 103.616 197.139 102.584V97.598H195.375V96.464H197.139V93.998L198.597 93.584V96.464H201.189V97.598H198.597V102.422C198.597 103.142 198.717 103.658 198.957 103.97C199.209 104.27 199.581 104.42 200.073 104.42C200.301 104.42 200.505 104.402 200.685 104.366C200.865 104.318 201.027 104.264 201.171 104.204V105.428C201.003 105.5 200.799 105.554 200.559 105.59C200.331 105.638 200.103 105.662 199.875 105.662ZM206.675 105.662C205.787 105.662 205.013 105.47 204.353 105.086C203.705 104.702 203.201 104.156 202.841 103.448C202.493 102.74 202.319 101.9 202.319 100.928C202.319 99.944 202.499 99.11 202.859 98.426C203.219 97.73 203.723 97.202 204.371 96.842C205.031 96.482 205.799 96.302 206.675 96.302C207.251 96.302 207.809 96.404 208.349 96.608C208.901 96.812 209.357 97.1 209.717 97.472L209.195 98.516C208.835 98.168 208.439 97.91 208.007 97.742C207.587 97.574 207.173 97.49 206.765 97.49C205.829 97.49 205.103 97.784 204.587 98.372C204.071 98.96 203.813 99.818 203.813 100.946C203.813 102.062 204.071 102.926 204.587 103.538C205.103 104.15 205.829 104.456 206.765 104.456C207.161 104.456 207.569 104.378 207.989 104.222C208.421 104.066 208.823 103.808 209.195 103.448L209.717 104.474C209.345 104.858 208.883 105.152 208.331 105.356C207.779 105.56 207.227 105.662 206.675 105.662ZM211.789 105.5V92.252H213.247V98.462H213.013C213.265 97.754 213.685 97.22 214.273 96.86C214.873 96.488 215.563 96.302 216.343 96.302C217.423 96.302 218.227 96.596 218.755 97.184C219.283 97.76 219.547 98.636 219.547 99.812V105.5H218.089V99.902C218.089 99.062 217.921 98.45 217.585 98.066C217.261 97.682 216.733 97.49 216.001 97.49C215.161 97.49 214.489 97.748 213.985 98.264C213.493 98.78 213.247 99.458 213.247 100.298V105.5H211.789ZM231.187 105.5L225.661 92.81H227.263L232.177 104.312H231.619L236.569 92.81H238.117L232.555 105.5H231.187ZM239.597 105.5V96.464H241.055V105.5H239.597ZM239.417 94.412V92.774H241.217V94.412H239.417ZM247.306 105.662C246.514 105.662 245.818 105.476 245.218 105.104C244.618 104.72 244.15 104.18 243.814 103.484C243.49 102.788 243.328 101.954 243.328 100.982C243.328 99.998 243.49 99.158 243.814 98.462C244.15 97.766 244.618 97.232 245.218 96.86C245.818 96.488 246.514 96.302 247.306 96.302C248.122 96.302 248.824 96.506 249.412 96.914C250.012 97.322 250.414 97.874 250.618 98.57H250.402V92.252H251.86V105.5H250.42V103.34H250.618C250.426 104.06 250.03 104.63 249.43 105.05C248.83 105.458 248.122 105.662 247.306 105.662ZM247.612 104.474C248.464 104.474 249.148 104.18 249.664 103.592C250.18 102.992 250.438 102.122 250.438 100.982C250.438 99.83 250.18 98.96 249.664 98.372C249.148 97.772 248.464 97.472 247.612 97.472C246.76 97.472 246.076 97.772 245.56 98.372C245.056 98.96 244.804 99.83 244.804 100.982C244.804 102.122 245.056 102.992 245.56 103.592C246.076 104.18 246.76 104.474 247.612 104.474ZM258.693 105.662C257.277 105.662 256.161 105.254 255.345 104.438C254.529 103.61 254.121 102.464 254.121 101C254.121 100.052 254.301 99.23 254.661 98.534C255.021 97.826 255.525 97.28 256.173 96.896C256.821 96.5 257.565 96.302 258.405 96.302C259.233 96.302 259.929 96.476 260.493 96.824C261.057 97.172 261.489 97.67 261.789 98.318C262.089 98.954 262.239 99.71 262.239 100.586V101.126H255.237V100.208H261.285L260.979 100.442C260.979 99.482 260.763 98.732 260.331 98.192C259.899 97.652 259.257 97.382 258.405 97.382C257.505 97.382 256.803 97.7 256.299 98.336C255.795 98.96 255.543 99.806 255.543 100.874V101.036C255.543 102.164 255.819 103.022 256.371 103.61C256.935 104.186 257.721 104.474 258.729 104.474C259.269 104.474 259.773 104.396 260.241 104.24C260.721 104.072 261.177 103.802 261.609 103.43L262.113 104.456C261.717 104.84 261.213 105.14 260.601 105.356C260.001 105.56 259.365 105.662 258.693 105.662ZM268.178 105.662C267.314 105.662 266.558 105.476 265.91 105.104C265.274 104.72 264.782 104.18 264.434 103.484C264.086 102.776 263.912 101.942 263.912 100.982C263.912 100.01 264.086 99.176 264.434 98.48C264.782 97.784 265.274 97.25 265.91 96.878C266.558 96.494 267.314 96.302 268.178 96.302C269.054 96.302 269.81 96.494 270.446 96.878C271.094 97.25 271.592 97.784 271.94 98.48C272.3 99.176 272.48 100.01 272.48 100.982C272.48 101.942 272.3 102.776 271.94 103.484C271.592 104.18 271.094 104.72 270.446 105.104C269.81 105.476 269.054 105.662 268.178 105.662ZM268.178 104.474C269.042 104.474 269.726 104.18 270.23 103.592C270.734 102.992 270.986 102.122 270.986 100.982C270.986 99.83 270.728 98.96 270.212 98.372C269.708 97.772 269.03 97.472 268.178 97.472C267.326 97.472 266.648 97.772 266.144 98.372C265.64 98.96 265.388 99.83 265.388 100.982C265.388 102.122 265.64 102.992 266.144 103.592C266.648 104.18 267.326 104.474 268.178 104.474Z" fill="#FD695A"/>
<defs>
<filter id="filter0_d_14106_3" x="77.9999" y="58" width="93.0909" height="92" filterUnits="userSpaceOnUse" color-interpolation-filters="sRGB">
<feFlood flood-opacity="0" result="BackgroundImageFix"/>
<feColorMatrix in="SourceAlpha" type="matrix" values="0 0 0 0 0 0 0 0 0 0 0 0 0 0 0 0 0 0 127 0" result="hardAlpha"/>
<feOffset dy="4"/>
<feGaussianBlur stdDeviation="11"/>
<feComposite in2="hardAlpha" operator="out"/>
<feColorMatrix type="matrix" values="0 0 0 0 0 0 0 0 0 0 0 0 0 0 0 0 0 0 0.05 0"/>
<feBlend mode="normal" in2="BackgroundImageFix" result="effect1_dropShadow_14106_3"/>
<feBlend mode="normal" in="SourceGraphic" in2="effect1_dropShadow_14106_3" result="shape"/>
</filter>
<filter id="filter1_d_14106_3" x="-6.10352e-05" y="0" width="249.091" height="248" filterUnits="userSpaceOnUse" color-interpolation-filters="sRGB">
<feFlood flood-opacity="0" result="BackgroundImageFix"/>
<feColorMatrix in="SourceAlpha" type="matrix" values="0 0 0 0 0 0 0 0 0 0 0 0 0 0 0 0 0 0 127 0" result="hardAlpha"/>
<feOffset dy="24"/>
<feGaussianBlur stdDeviation="50"/>
<feColorMatrix type="matrix" values="0 0 0 0 0 0 0 0 0 0 0 0 0 0 0 0 0 0 0.149 0"/>
<feBlend mode="normal" in2="BackgroundImageFix" result="effect1_dropShadow_14106_3"/>
<feBlend mode="normal" in="SourceGraphic" in2="effect1_dropShadow_14106_3" result="shape"/>
</filter>
<linearGradient id="paint0_linear_14106_3" x1="99.9999" y1="77.4694" x2="157.316" y2="94.736" gradientUnits="userSpaceOnUse">
<stop stop-color="white" stop-opacity="0.57"/>
<stop offset="0.9999" stop-color="white" stop-opacity="0.28"/>
<stop offset="1" stop-color="white" stop-opacity="0.69"/>
</linearGradient>
</defs>
</svg>
